/* XPM */
static char *emacs___[] = {
/* columns rows colors chars-per-pixel */
"32 32 108 2",
"   c #2B2836",
".  c #2F2D3C",
"X  c #353243",
"o  c #3A374B",
"O  c #3D3A4D",
"+  c #3F3C50",
"@  c #423E54",
"#  c #464356",
"$  c #484657",
"%  c #464259",
"&  c #4A475C",
"*  c #4D4962",
"=  c #504C66",
"-  c #524E69",
";  c #545165",
":  c #55516D",
">  c #59556E",
",  c #5E5A6D",
"<  c #575371",
"1  c #5A5574",
"2  c #5C5877",
"3  c #5C5779",
"4  c #5E5A7B",
"5  c #615E74",
"6  c #605C7E",
"7  c #656272",
"8  c #65627C",
"9  c #686479",
"0  c #6C697C",
"q  c #716F7B",
"w  c #635E82",
"e  c #656185",
"r  c #6A6586",
"t  c #6E6B81",
"y  c #67628A",
"u  c #6A658C",
"i  c #726F84",
"p  c #726E8D",
"a  c #797687",
"s  c #75728C",
"d  c #7A778E",
"f  c #6C6790",
"g  c #6E6992",
"h  c #716B96",
"j  c #746E9A",
"k  c #777390",
"l  c #7A7692",
"z  c #7D7A96",
"x  c #76709E",
"c  c #7F7B99",
"v  c #7771A0",
"b  c #7872A1",
"n  c #827E9C",
"m  c #848195",
"M  c #898695",
"N  c #8C8A97",
"B  c #86829C",
"V  c #89879A",
"C  c #8C899B",
"Z  c #918F9E",
"A  c #8783A4",
"S  c #8985A1",
"D  c #8E8BA1",
"F  c #918EA4",
"G  c #918DAA",
"H  c #9491A5",
"J  c #9794AA",
"K  c #9996AB",
"L  c #9C99AD",
"P  c #9B97B0",
"I  c #9E9BB2",
"U  c #A19FAF",
"Y  c #A19EB6",
"T  c #A29EB8",
"R  c #A3A1AC",
"E  c #A6A4B0",
"W  c #A8A5B5",
"Q  c #AAA9B4",
"!  c #A4A0B9",
"~  c #A9A7B9",
"^  c #AAA8BB",
"/  c #B1AFBC",
"(  c #B4B2BF",
")  c #B6B4C3",
"_  c #B8B6C4",
"`  c #BDBBC4",
"'  c #BFBDCA",
"]  c #C1BFCA",
"[  c #C3C2CA",
"{  c #C8C7CE",
"}  c #C5C4D1",
"|  c #C8C7D0",
" . c #CDCCD3",
".. c #CFCED8",
"X. c #D0CEDA",
"o. c #D2D2D7",
"O. c #D5D4DB",
"+. c #DAD9DF",
"@. c #DDDCE2",
"#. c #E0DFE5",
"$. c #E2E2E4",
"%. c #E5E4E9",
"&. c #EAE9ED",
"*. c #EDEDF0",
"=. c #F4F3F5",
"-. c #F6F6F8",
";. c #FFFFFF",
":. c None",
/* pixels */
":.:.:.:.:.:.:.:.:.:.:.:.:.:.:.:.:.:.:.:.:.:.:.:.:.:.:.:.:.:.:.:.",
":.:.:.:.:.:.:.:.:.:.:.:.:.:.:.:.:.:.:.:.:.:.:.:.:.:.:.:.:.:.:.:.",
":.:.:.:.:.:.:.:.:.:.:.:.:.:.:.2 6 t ` ;.$.:.:.:.:.:.:.:.:.:.:.:.",
":.:.:.:.:.:.:.:.:.:.:.:.:.4 4 n n _ o.: [  .:.:.:.:.:.:.:.:.:.:.",
":.:.:.:.:.:.:.:.:.:.:.:.6 p P ! n *.S n d ` ;.$.:.:.:.:.:.:.:.:.",
":.:.:.:.:.:.:.:.:.:.4 e S Y Y ! I z n n ) o.8 ` ` :.:.:.:.:.:.:.",
":.:.:.:.:.:.:.:.2 4 k K K K L I T T ! n %.B J m ` ;.O.:.:.:.:.:.",
":.:.:.:.:.:.:.2 e D K L L F D F J K K W H l z ( O.0 _ Q :.:.:.:.",
":.:.:.:.:.: 1 z L J W *.&.%.| Q C D V D _ l k %.B H M ` ;.[ :.:.",
":.:.:.= : 2 B H J D L =.;.;.;.;.-.=.[ @.;.L C s c c ` o.q ` R :.",
":.* * - < 2 4 6 L L H ;.=. .$.&.;.;.;.;.;./ F K A z *.m N N 0 & ",
"* * = : 1 4 e k ;.;.&.;.+.1 1 w n ) O.=.;.] H K L n s l n 9 0 :.",
"* * - < 2 w w w O.;.=.;.=.3 w y u y e c H H J L L L H n : Z =. .",
"%.t : 1 4 w e e ' &.3 k _ G g h j h h f y n L L L K C $ E ;.@.; ",
"O.@.5 1 6 w e e S @.4 w y j j x b b j h u e s K L V @ ` ;.` ; :.",
"; @.O.2 6 e e w c ;.B e f j x b b v j g u w 4 8 5 $ @.;.W + :.:.",
":.0 =.[ 6 w u e 4 O.I y g j b b x j g u e 6 2 % i &.;.H O :.:.:.",
":.:.a ;.K w z ^ _ ;.O.w g j x j h g u e 6 2 % V =.-.l X :.:.:.:.",
":.:.:.Z ;.B w ~ ;.;.*.w u g h g u u e 6 2 % L ;.%.p :.:.:.:.:.:.",
":.:.:.X ' =.z 4 I .. .w e u u u e w 4 2 % ' ;.X.e :.:.:.:.:.:.:.",
":.:.:.:.% O.@.e 4 4 6 w w e e w 6 4 1 * @.;.' < :.:.:.:.:.:.:.:.",
":.:.:.:.:.> @.@.4 4 4 6 6 6 4 4 1 < , @.;.! - :.:.:.:.:.:.:.:.:.",
":.:.:.:.:.:.s =.' 1 2 2 2 2 1 < % 7 =.-.A @ :.:.:.:.:.:.:.:.:.:.",
":.:.:.:.:.:.:.l ;.U < < < : : @ Z ;.%.B :.:.:.:.:.:.:.:.:.:.:.:.",
":.:.:.:.:.:.:.:.K ;.V - = = O ` ;.@.r :.:.:.:.:.:.:.:.:.:.:.:.:.",
":.:.:.:.:.:.:.:.o _ =.t * # o.;.} 1 :.:.:.:.:.:.:.:.:.:.:.:.:.:.",
":.:.:.:.:.:.:.:.:.%  .=.{ @.;.L * :.:.:.:.:.:.:.:.:.:.:.:.:.:.:.",
":.:.:.:.:.:.:.:.:.:.: #.;.=.B o :.:.:.:.:.:.:.:.:.:.:.:.:.:.:.:.",
":.:.:.:.:.:.:.:.:.:.:.> V s   :.:.:.:.:.:.:.:.:.:.:.:.:.:.:.:.:.",
":.:.:.:.:.:.:.:.:.:.:.:.. :.:.:.:.:.:.:.:.:.:.:.:.:.:.:.:.:.:.:.",
":.:.:.:.:.:.:.:.:.:.:.:.:.:.:.:.:.:.:.:.:.:.:.:.:.:.:.:.:.:.:.:.",
":.:.:.:.:.:.:.:.:.:.:.:.:.:.:.:.:.:.:.:.:.:.:.:.:.:.:.:.:.:.:.:."
};
