/* XPM */
static char *emacs___[] = {
/* columns rows colors chars-per-pixel */
"16 16 95 2",
"   c #3A3748",
".  c #3F3C4E",
"X  c #3F3C4F",
"o  c #423F52",
"O  c #423F53",
"+  c #444156",
"@  c #454256",
"#  c #464357",
"$  c #48455A",
"%  c #4A475D",
"&  c #4B485E",
"*  c #53505F",
"=  c #4E4B62",
"-  c #524F62",
";  c #504D64",
":  c #514E65",
">  c #555267",
",  c #545068",
"<  c #56526B",
"1  c #58546D",
"2  c #5B586B",
"3  c #5B596B",
"4  c #5A5670",
"5  c #5B5772",
"6  c #5C5873",
"7  c #5D5974",
"8  c #5F5B76",
"9  c #5F5B77",
"0  c #615C79",
"q  c #636170",
"w  c #68647D",
"e  c #68647E",
"r  c #6B6879",
"t  c #676280",
"y  c #686482",
"u  c #6D6882",
"i  c #726E84",
"p  c #757186",
"a  c #777586",
"s  c #787589",
"d  c #7C7A8B",
"f  c #7D7B8B",
"g  c #7C798E",
"h  c #817D95",
"j  c #85819A",
"k  c #89859B",
"l  c #908F9A",
"z  c #8984A0",
"x  c #8985A0",
"c  c #8D89A1",
"v  c #8E8AA5",
"b  c #8E8AA6",
"n  c #938FAB",
"m  c #9694A2",
"M  c #9491A6",
"N  c #9D9BA4",
"B  c #9D9AA8",
"V  c #9893B1",
"C  c #9995B0",
"Z  c #9F9CB1",
"A  c #A7A6B1",
"S  c #AAA8B5",
"D  c #A5A1BA",
"F  c #A7A4BB",
"G  c #AEABBD",
"H  c #B5B3BF",
"J  c #B3B1C0",
"K  c #B7B4C5",
"L  c #B7B4C6",
"P  c #BBBAC2",
"I  c #BEBBCE",
"U  c #BFBDCD",
"Y  c #C3C1CC",
"T  c #C8C6D1",
"R  c #D0CFD5",
"E  c #D0CEDA",
"W  c #D2D1D6",
"Q  c #D5D3DD",
"!  c #D8D7DE",
"~  c #DBDADE",
"^  c #DFDEE3",
"/  c #E1E0E5",
"(  c #E6E5E9",
")  c #E5E4EB",
"_  c #EFEFF1",
"`  c #F2F1F5",
"'  c #F3F2F4",
"]  c #F3F3F4",
"[  c #F4F4F5",
"{  c #F7F6F8",
"}  c #F7F7F9",
"|  c #F8F7F9",
" . c #F9F8F9",
".. c gray100",
"X. c None",
/* pixels */
"X.X.y 0 8 8 8 w p s s s i e y X.",
"X.t Y L V D ) ......` I V b u t ",
"X.9 K n F  .......E C n n n z 9 ",
"X.7 v v Q ......U v v v v v v 7 ",
"X.6 x x Z | ....G x x x x x x 6 ",
"X.5 j j j M / ..} J c j j j j 5 ",
"X.4 h h k ! ......_ T h h h h 4 ",
"X.1 g g ( ....{ H g g g g g g 1 ",
"X.< < < ^ ....S < < < < < < < < ",
"X., ; ; ; A [ [ d ; ; ; ; ; ; , ",
"X.: % % % % > P ..W a % % % % : ",
"X.= + + + + + + 2 R ..R 3 + + = ",
"X.& O X X X X X X X ~ ..] q O & ",
"X.# $ .         * N ' ....l $ # ",
"X.X.o @ @ @ @ - r f B m r @ o X.",
"X.X.X.X.X.X.X.X.X.X.X.X.X.X.X.X."
};
